HIERARCHY
ROOT Hips
{
	OFFSET 0.00000 0.00000 0.00000
	CHANNELS 6 Xposition Yposition Zposition Zrotation Yrotation Xrotation 
	JOINT LHipJoint
	{
		OFFSET 0 0 0
		CHANNELS 3 Zrotation Yrotation Xrotation
		JOINT LeftHip
		{
			OFFSET 1.81424 -1.42316 1.18090
			CHANNELS 3 Zrotation Yrotation Xrotation
			JOINT LeftKnee
			{
				OFFSET 2.15837 -5.93008 0.00000
				CHANNELS 3 Zrotation Yrotation Xrotation
				JOINT LeftAnkle
				{
					OFFSET 2.51759 -6.91701 0.00000
					CHANNELS 3 Zrotation Yrotation Xrotation
					JOINT LeftToe
					{
						OFFSET 0.18318 -0.50327 1.95113
						CHANNELS 3 Zrotation Yrotation Xrotation
						End Site
						{
							OFFSET 0.00000 -0.00000 1.01524
						}
					}
				}
			}
		}
	}
	JOINT RHipJoint
	{
		OFFSET 0 0 0
		CHANNELS 3 Zrotation Yrotation Xrotation
		JOINT RightHip
		{
			OFFSET -1.43917 -1.42316 1.18090
			CHANNELS 3 Zrotation Yrotation Xrotation
			JOINT RightKnee
			{
				OFFSET -2.25237 -6.18833 0.00000
				CHANNELS 3 Zrotation Yrotation Xrotation
				JOINT RightAnkle
				{
					OFFSET -2.46496 -6.77243 0.00000
					CHANNELS 3 Zrotation Yrotation Xrotation
					JOINT RightToe
					{
						OFFSET -0.26285 -0.72219 1.76148
						CHANNELS 3 Zrotation Yrotation Xrotation
						End Site
						{
							OFFSET -0.00000 -0.00000 0.95109
						}
					}
				}
			}
		}
	}
	JOINT lowerback
	{
		OFFSET 0 0 0
		CHANNELS 3 Zrotation Yrotation Xrotation
		JOINT Chest
		{
			OFFSET -0.08725 1.93754 -0.28890
			CHANNELS 3 Zrotation Yrotation Xrotation
			JOINT Chest2
			{
				OFFSET 0.01195 1.94849 0.05967
				CHANNELS 3 Zrotation Yrotation Xrotation
				JOINT lowerneck
				{
					OFFSET 0 0 0
					CHANNELS 3 Zrotation Yrotation Xrotation
					JOINT Neck
					{
						OFFSET 0.02762 1.60124 0.34160
						CHANNELS 3 Zrotation Yrotation Xrotation
						JOINT Head
						{
							OFFSET -0.04785 1.66713 -0.24070
							CHANNELS 3 Zrotation Yrotation Xrotation
							End Site
							{
								OFFSET -0.02188 1.68591 -0.11959
							}
						}
					}
				}
				JOINT LeftCollar
				{
					OFFSET 0 0 0
					CHANNELS 3 Zrotation Yrotation Xrotation
					JOINT LeftShoulder
					{
						OFFSET 2.59610 1.78696 -0.28854
CHANNELS 3 Zrotation Xrotation Yrotation
						JOINT LeftElbow
						{
OFFSET 0 -5.178530 0.000000
CHANNELS 3 Zrotation Xrotation Yrotation
							JOINT LeftWrist
							{
OFFSET 0 -3.403990 -0.000000
CHANNELS 3 Zrotation Xrotation Yrotation
								JOINT lhand
								{
									OFFSET 0 0 0
CHANNELS 3 Zrotation Xrotation Yrotation
									JOINT LFingers
									{
OFFSET 0 -0.708960 -0.000000
CHANNELS 3 Zrotation Xrotation Yrotation
										End Site
										{
OFFSET 0 -0.571590 -0.000000
										}
									}
								}
								JOINT LThumb
								{
OFFSET 0 0.000000 0.000000
CHANNELS 3 Zrotation Xrotation Yrotation
									End Site
									{
OFFSET 0 -0.580310 0.580310
									}
								}
							}
						}
					}
				}
				JOINT RightCollar
				{
					OFFSET 0 0 0
					CHANNELS 3 Zrotation Yrotation Xrotation
					JOINT RightShoulder
					{
						OFFSET -2.87749 1.55486 -0.73085
CHANNELS 3 Zrotation Xrotation Yrotation
						JOINT RightElbow
						{
OFFSET 0 -5.423510 -0.000000
CHANNELS 3 Zrotation Xrotation Yrotation
							JOINT RightWrist
							{
OFFSET 0 -3.420660 -0.000000
CHANNELS 3 Zrotation Xrotation Yrotation
								JOINT rhand
								{
									OFFSET 0 0 0
CHANNELS 3 Zrotation Xrotation Yrotation
									JOINT RFingers
									{
OFFSET 0 -0.743610 -0.000000
CHANNELS 3 Zrotation Xrotation Yrotation
										End Site
										{
OFFSET 0 -0.599520 -0.000000
										}
									}
								}
								JOINT RThumb
								{
OFFSET 0 0.000000 0.000000
CHANNELS 3 Zrotation Xrotation Yrotation
									End Site
									{
OFFSET 0 -0.608670 0.608670
									}
								}
							}
						}
					}
				}
			}
		}
	}
}
MOTION
Frames: 11
Frame Time: 0.008333333333333333
3.860500 16.318300 -0.571900 22.390400 84.660300 27.642800 0.000000 0.000000 0.000000 -21.233900 -7.974300 -5.253100 1.400700 7.486800 21.165900 1.109800 9.091200 -25.125600 0.237000 3.132800 8.648800 0.000000 0.000000 0.000000 13.895300 15.254600 -10.057600 -2.734400 -10.252100 29.796900 -1.976900 -7.399200 -30.059700 -0.531700 -4.672600 12.977100 -6.219900 0.792000 -3.704600 -0.127600 1.295900 -1.456900 3.407300 0.677800 0.440200 5.861300 0.625400 -17.491500 -6.570300 1.648600 28.653000 -3.222000 0.705900 12.490900 -0.000000 -0.000000 0.000000 4.757300 -0.772500 -43.844800 12.085100 -19.932100 2.131200 -6.125900 -22.129300 26.115000 0.000000 0.000000 0.000000 -7.125000 0.000000 0.000000 -21.347600 5.160200 -20.880000 -0.000000 -0.000000 0.000000 -3.981800 -0.681700 23.452900 -11.222200 -18.628000 -1.846300 -10.647400 -12.767800 -28.932900 0.000000 0.000000 0.000000 7.125000 0.000000 -0.000000 11.693000 1.152100 11.703500
3.912641 16.406254 -0.488644 27.877521 84.621942 33.202663 0.000000 0.000000 0.000000 -21.490463 -6.489651 -2.612757 0.797360 5.699562 15.915314 0.673529 10.090279 -22.273271 0.081868 1.843550 5.073587 0.000000 0.000000 0.000000 13.627460 15.726656 -11.067106 -3.140185 -10.918564 32.005771 -2.164834 -8.447538 -31.848212 -0.210125 -2.951094 8.142595 -6.657761 0.697859 -3.989187 -0.177987 1.213695 -1.340690 3.604702 0.626245 0.719404 3.845490 0.957468 -17.101190 -2.498439 1.375513 26.983718 -1.343151 0.856957 11.697474 0.000000 0.000000 0.000000 4.793539 0.889930 -53.112137 12.913257 -21.160037 2.421860 16.134648 -28.170392 26.492727 0.000000 0.000000 0.000000 -7.125000 0.000000 0.000000 -8.283596 2.804191 -7.953177 0.000000 0.000000 0.000000 -3.956379 -0.985958 24.641457 -11.722041 -19.386536 -2.009045 -10.621656 -13.685668 -28.493808 0.000000 0.000000 0.000000 7.125000 0.000000 0.000000 11.683937 1.586997 11.601799
3.931914 16.408111 -0.408722 26.210766 85.042466 31.767822 0.000000 0.000000 0.000000 -20.872994 -7.442878 -2.563158 0.819053 5.774612 16.131804 0.642458 10.747509 -22.611563 0.074304 1.758622 4.838939 0.000000 0.000000 0.000000 14.351790 15.851155 -10.868230 -3.096077 -10.848932 31.772208 -2.306068 -8.281577 -32.581672 -0.183337 -2.758131 7.605960 -6.343187 0.594053 -4.154334 -0.056473 1.070991 -1.436297 3.550009 0.556790 0.732856 3.908120 0.911880 -17.030013 -2.391571 1.262677 26.975212 -1.330842 0.827254 11.675563 0.000000 0.000000 0.000000 4.582612 1.467496 -53.986975 13.198310 -21.577124 2.525720 14.891840 -27.862081 25.834948 0.000000 0.000000 0.000000 -7.125000 0.000000 0.000000 -8.984662 3.648582 -8.501101 0.000000 0.000000 0.000000 -4.016399 -1.145882 25.958974 -11.968271 -19.757002 -2.091542 -10.514619 -14.448490 -27.892101 0.000000 0.000000 0.000000 7.125000 0.000000 0.000000 11.715531 2.192322 11.504594
3.961024 16.407535 -0.331287 29.994348 85.374443 35.648160 0.000000 0.000000 0.000000 -20.651317 -7.385691 -2.362725 0.773733 5.616406 15.675259 0.642720 10.457571 -22.336229 0.058560 1.560776 4.293226 0.000000 0.000000 0.000000 14.623468 15.881728 -10.755070 -3.129331 -10.901472 31.948391 -2.415886 -9.043164 -33.666621 -0.131349 -2.335850 6.434750 -6.342586 0.490045 -4.560769 -0.166451 0.969726 -1.294493 3.439235 0.490729 1.119851 3.711362 0.908471 -17.185293 -1.893756 1.143749 26.741569 -1.129598 0.808862 11.608972 0.000000 0.000000 0.000000 4.624481 1.343835 -55.503505 13.136678 -21.487110 2.503086 14.621488 -28.327109 25.885063 0.000000 0.000000 0.000000 -7.125000 0.000000 0.000000 -9.150976 3.636984 -8.665215 0.000000 0.000000 0.000000 -3.910241 -1.318889 26.653100 -12.120507 -19.985036 -2.143286 -10.997724 -14.983340 -27.767865 0.000000 0.000000 0.000000 7.125000 0.000000 0.000000 11.424894 2.253507 11.194228
3.982141 16.399371 -0.267339 34.953967 85.505872 40.562200 0.000000 0.000000 0.000000 -20.757396 -7.653632 -1.939418 0.741573 5.501212 15.343709 0.581586 10.878734 -22.178320 0.034332 1.195762 3.287515 0.000000 0.000000 0.000000 14.663756 15.903267 -10.591422 -3.160122 -10.949822 32.110888 -2.388843 -9.174331 -33.593730 -0.104246 -2.082151 5.732751 -6.572153 0.501998 -4.088651 -0.206181 0.952051 -1.616492 3.515627 0.510707 0.521216 3.645679 0.666854 -16.769153 -1.944689 0.853444 26.601008 -1.179094 0.668314 11.460993 0.000000 0.000000 0.000000 4.336680 1.916114 -55.487802 12.982605 -21.261737 2.446951 14.708080 -27.594713 25.868351 0.000000 0.000000 0.000000 -7.125000 0.000000 0.000000 -9.097497 3.641481 -8.612484 0.000000 0.000000 0.000000 -4.061728 -0.875485 26.623641 -11.908512 -19.667229 -2.071437 -11.157616 -14.700077 -28.238802 0.000000 0.000000 0.000000 7.125000 0.000000 0.000000 11.356313 1.768797 11.225256
4.005671 16.401222 -0.223001 36.377198 85.952238 42.083864 0.000000 0.000000 0.000000 -20.420492 -8.326940 -1.868480 0.757105 5.557145 15.504713 0.587365 11.033162 -22.385760 0.040549 1.299568 3.573408 0.000000 0.000000 0.000000 15.050603 15.649956 -10.544759 -3.142038 -10.921495 32.015715 -2.529258 -8.521990 -33.992533 -0.106395 -2.103144 5.790829 -6.368919 0.408691 -4.277398 -0.052112 0.832972 -1.539868 3.559515 0.441922 0.719883 3.482252 0.734650 -17.191523 -1.943410 0.978041 26.710222 -1.133401 0.704607 11.590762 0.000000 0.000000 0.000000 3.988862 1.646473 -54.257664 12.733472 -20.895535 2.357411 15.132693 -26.954133 25.619700 0.000000 0.000000 0.000000 -7.125000 0.000000 0.000000 -8.823889 3.830719 -8.315541 0.000000 0.000000 0.000000 -4.289461 -1.097285 26.112776 -11.567460 -19.152673 -1.958148 -10.434890 -13.154936 -27.637389 0.000000 0.000000 0.000000 7.125000 0.000000 0.000000 11.750015 2.452925 11.483499
4.027679 16.404736 -0.188392 36.815348 86.266431 42.529217 0.000000 0.000000 0.000000 -20.038024 -7.938138 -2.232052 0.795236 5.692108 15.893522 0.603857 10.557974 -22.071670 0.010159 0.648449 1.781942 0.000000 0.000000 0.000000 15.408681 15.405745 -10.379758 -3.102897 -10.859728 31.808349 -2.555160 -8.475025 -34.109127 -0.092950 -1.965628 5.410658 -5.950633 0.511314 -4.426473 -0.203972 0.965454 -1.558457 3.175653 0.506072 0.780467 3.657637 0.619731 -17.062865 -1.760896 0.726066 26.856927 -1.133212 0.639632 11.613829 0.000000 0.000000 0.000000 4.557588 1.492864 -54.252354 12.715836 -20.869455 2.351089 15.707860 -27.655284 26.396511 0.000000 0.000000 0.000000 -7.125000 0.000000 0.000000 -8.532558 2.965592 -8.172159 0.000000 0.000000 0.000000 -4.043094 -1.233101 24.859342 -10.798932 -17.979260 -1.713458 -10.443979 -11.754649 -27.619523 0.000000 0.000000 0.000000 7.125000 0.000000 0.000000 11.743776 2.469282 11.473553
4.057953 16.398144 -0.162667 41.062250 86.405427 46.632761 0.000000 0.000000 0.000000 -20.193204 -8.614466 -1.653708 0.792170 5.681448 15.862907 0.599501 10.898853 -22.365284 0.024652 1.012760 2.783901 0.000000 0.000000 0.000000 15.450833 15.129548 -10.111105 -3.109506 -10.870220 31.843498 -2.581486 -8.965848 -34.540338 -0.085428 -1.884910 5.187656 -6.288465 0.367993 -4.709802 0.011360 0.809511 -1.433502 3.585735 0.416255 1.074625 3.401838 0.704091 -17.085596 -1.941335 0.971841 26.768911 -1.119689 0.698174 11.591231 0.000000 0.000000 0.000000 4.311816 1.321397 -53.393326 12.529299 -20.593721 2.285090 15.964902 -27.746830 27.057501 0.000000 0.000000 0.000000 -7.125000 0.000000 0.000000 -8.430531 2.261231 -8.181416 0.000000 0.000000 0.000000 -4.588766 -1.290951 24.870142 -10.230435 -17.099263 -1.542053 -11.181096 -11.594937 -28.052180 0.000000 0.000000 0.000000 7.125000 0.000000 0.000000 11.332236 1.949529 11.162989
4.074766 16.396059 -0.149237 40.815438 86.704127 46.386406 0.000000 0.000000 0.000000 -19.890496 -8.496577 -1.803413 0.813522 5.755705 16.077198 0.628364 10.595045 -22.335736 0.019019 0.889415 2.444641 0.000000 0.000000 0.000000 15.739810 14.941876 -10.002618 -3.084178 -10.830027 31.708831 -2.616962 -8.471173 -34.448162 -0.079644 -1.820279 5.009257 -5.995229 0.439895 -4.813695 0.018840 0.898521 -1.432569 3.434932 0.458988 1.128943 3.021354 0.707911 -17.390006 -1.327250 0.909105 27.021533 -0.836754 0.713052 11.744158 0.000000 0.000000 0.000000 4.544824 1.148115 -53.151240 12.296475 -20.247747 2.203798 15.800483 -26.935269 26.591016 0.000000 0.000000 0.000000 -7.125000 0.000000 0.000000 -8.492613 2.755568 -8.165136 0.000000 0.000000 0.000000 -4.434688 -1.424943 23.261983 -9.668118 -16.218773 -1.380835 -11.425994 -10.295958 -28.027865 0.000000 0.000000 0.000000 7.125000 0.000000 0.000000 11.187041 1.941602 11.015776
4.093970 16.395945 -0.142550 41.133836 86.772582 46.726376 0.000000 0.000000 0.000000 -19.864342 -8.686910 -1.640466 0.808294 5.737629 16.025039 0.629448 10.721629 -22.467802 0.015918 0.813004 2.234448 0.000000 0.000000 0.000000 15.815883 14.898998 -9.989248 -3.098506 -10.852809 31.784980 -2.607987 -8.594404 -34.469011 -0.063008 -1.619749 4.455823 -5.921488 0.550360 -4.962241 -0.020828 1.054395 -1.387661 3.363783 0.532292 1.244538 2.915365 0.667471 -17.999645 -1.238209 0.831900 27.228117 -0.797404 0.676177 11.945025 0.000000 0.000000 0.000000 4.799171 1.017281 -53.087896 12.167364 -20.055121 2.159320 15.535675 -27.525462 27.121089 0.000000 0.000000 0.000000 -7.125000 0.000000 0.000000 -8.691682 2.262958 -8.440551 0.000000 0.000000 0.000000 -4.158527 -1.462279 21.469961 -9.273621 -15.595427 -1.272712 -11.449303 -8.792643 -28.264859 0.000000 0.000000 0.000000 7.125000 0.000000 0.000000 11.186849 1.704741 11.063952
4.112665 16.388265 -0.146559 40.030612 86.793959 45.494745 0.000000 0.000000 0.000000 -19.884321 -8.797601 -1.353955 0.804837 5.725606 15.990286 0.618216 10.962973 -22.600549 0.014020 0.764593 2.101322 0.000000 0.000000 0.000000 15.922597 14.935785 -9.781384 -3.110549 -10.871819 31.848825 -2.720912 -8.428236 -34.988151 -0.065963 -1.656671 4.557715 -5.898132 0.562443 -4.990491 0.051841 1.068338 -1.455489 3.426474 0.542869 1.187761 2.716264 0.707991 -17.711843 -1.112019 0.925409 27.086646 -0.701918 0.714700 11.832183 0.000000 0.000000 0.000000 4.705914 1.342448 -51.922676 12.015913 -19.828464 2.107711 13.885460 -25.795354 25.855747 0.000000 0.000000 0.000000 -7.125000 0.000000 0.000000 -9.593618 3.768409 -9.072663 0.000000 0.000000 0.000000 -4.102359 -1.349090 20.788676 -8.918781 -15.030926 -1.178966 -11.094518 -7.742324 -28.026208 0.000000 0.000000 0.000000 7.125000 0.000000 0.000000 11.381659 1.986475 11.205927
